PathFileType	4	(X/Y/Z)	/home/abdul/Desktop/myosuite/custom_workspace/IK/output/S16_12_3.trc
DataRate	CameraRate	NumFrames	NumMarkers	Units	OrigDataRate	OrigDataStartFrame	OrigNumFrames
200.0	200.0	39	3	mm	200.0	763	1220
Frame#	Time	V_Shoulder			V_Elbow			V_Wrist		
		X1	Y1	Z1	X2	Y2	Z2	X3	Y3	Z3

763	3.81	-112.42628675025871	574.8460001775989	305.35519564158244	-246.8107318085265	414.48187415473757	56.15997805973071	-111.81775195632588	201.72063587596952	66.8017617963448
764	3.815	-112.41162892733335	574.6993060984656	305.3304582580949	-246.8023994938104	414.41248042904436	56.08823593683257	-111.81251404170715	201.6262994147501	66.60265518652514
765	3.82	-112.39879604158932	574.5546140431173	305.3057494951757	-246.7959033507882	414.3449297869158	56.01664391271334	-111.8086268554779	201.53811051767244	66.40359530764735
766	3.825	-112.38777788149049	574.4119113695592	305.2810618253173	-246.79116387958612	414.2791988171417	55.94517168271464	-111.80612775153111	201.45588923005909	66.20446887658566
767	3.83	-112.37856335740203	574.2711858998792	305.2563871275867	-246.7881009519966	414.21526462632215	55.873789013688395	-111.80504491488028	201.37945490168596	66.00516302529635
768	3.835	-112.37114051505812	574.1324259270896	305.23171673387714	-246.78663373833575	414.1531046015663	55.80246587441049	-111.80539700728175	201.30862631835856	65.80556538276221
769	3.84	-112.36549654785598	573.9956202199824	305.2070414782618	-246.7866806396559	414.0926961725712	55.731172568455946	-111.80719285375878	201.24322181321944	65.60556418816014
770	3.845	-112.36161780796715	573.8607580260397	305.18235174927696	-246.7881592266173	414.0340165745064	55.65987986915737	-111.81043117190316	201.1830593582954	65.40504843506669
771	3.85	-112.35948981626177	573.727829072454	305.15763754495293	-246.79098618628677	413.9770426131356	55.58855915624652	-111.81510034568004	201.12795663697858	65.20390804642153
772	3.855	-112.35909727105091	573.5968235653094	305.1328885304019	-246.79507727808954	413.9217504335993	55.51718255375686	-111.82117824530943	201.07773109830936	65.00203407987311
773	3.86	-112.36042405565661	573.4677321869871	305.1080940977634	-246.80034730008754	413.8681152942805	55.445723068743916	-111.8286320946404	201.0321999940987	64.7993189630354
774	3.865	-112.36345324482745	573.3405460918584	305.0832434283011	-246.80671006670178	413.8161113471597	55.37415473035835	-111.83741838727457	200.9911804000867	64.59565675808771
775	3.87	-112.36816711002365	573.2152569003339	305.05832555643417	-246.8140783989288	413.7657114260509	55.30245272878691	-111.84748285253374	200.95448922248045	64.39094345505319
776	3.875	-112.37454712360211	573.0918566913431	305.03332943548384	-246.82236412803138	413.7168868440855	55.23059355355603	-111.85876047220188	200.92194319135564	64.18507729299382
777	3.88	-112.38257396193929	572.9703379933197	305.00824400490643	-246.83147811360377	413.6696072017835	55.158555130674834	-111.87117554880714	200.89335884253038	63.9779591082615
778	3.885	-112.39222750753481	572.850693773778	304.9830582587811	-246.84133027683004	413.623840207021	55.086316958076694	-111.8846418260423	200.8685524896344	63.769492708846215
779	3.89	-112.40348685014654	572.7329174275601	304.9577613153139	-246.85182964966197	413.5795515081627	55.0138602388027	-111.89906266175566	200.84734018820006	63.55958527376257
780	3.895	-112.41633028701256	572.6170027638487	304.9323424871173	-246.86288444055106	413.53670454158714	54.94116801135661	-111.91433125377716	200.8295376936894	63.34814777631635
781	3.9	-112.43073532222274	572.5029439920345	304.9067913520212	-246.87440211726963	413.495260394784	54.868225276648566	-111.9303309186769	200.81496041544608	63.13509542999206
782	3.905	-112.44667866530756	572.3907357065341	304.8810978241664	-246.8862895072533	413.45517768615116	54.7950191209351	-111.94693542338729	200.80342336862583	62.920348155601985
783	3.91	-112.464136229117	572.2803728706609	304.8552522251343	-246.89845291579195	413.4164124625629	54.7215388341556	-111.96400936945342	200.7947411262042	62.70383106823602
784	3.915	-112.48308312706911	572.1718507996476	304.8292453548606	-246.91079826228716	413.3789181157185	54.64777602306034	-111.98140862951189	200.78872777319748	62.48547498245098
785	3.92	-112.50349366985074	572.0651651429282	304.80306856208335	-246.92323123468412	413.34264531821464	54.57372471852325	-111.99898083543374	200.78519686525107	62.26521693403705
786	3.925	-112.5253413616599	571.9603118657855	304.77671381407623	-246.9356574620731	413.3075419802176	54.49938147643333	-112.01656591740556	200.78396139375872	62.04300071659881
787	3.93	-112.54859889608156	571.857287230475	304.7501737654159	-246.94798270534275	413.2735532275341	54.42474547156266	-112.03399669306103	200.78483375966772	61.81877743108913
788	3.935	-112.57323815169464	571.7560877769392	304.7234418255386	-246.9601130656526	413.2406214018063	54.34981858381606	-112.0510995056168	200.78762575810566	61.59250604633512
789	3.94	-112.5992301875102	571.6567103032233	304.69651222483964	-246.9719552103806	413.2086860834721	54.27460547627821	-112.06769490980871	200.7921485759307	61.36415396849872
790	3.945	-112.62654523834574	571.5591518457117	304.6693800790761	-246.9834166160876	413.177684138049	54.19911366448771	-112.08359840426907	200.79821280426117	61.13369761731917
791	3.95	-112.65515271024266	571.4634096593012	304.6420414518332	-246.99440582793002	413.14754978621335	54.12335357638524	-112.09862120883275	200.80562846798193	60.90112300689093
792	3.955	-112.68502117603657	571.3694811976299	304.61449341482313	-247.0048327348417	413.1182146980544	54.04733860240408	-112.11257108510861	200.8142050741534	60.666426328640824
793	3.96	-112.71611837119367	571.2773640934801	304.58673410578785	-247.01460885969988	413.0896081117936	53.97108513519582	-112.12525319850397	200.8237516811672	60.42961453408012
794	3.965	-112.74841119002689	571.1870561394775	304.5587627837851	-247.0236476635865	413.0616569771605	53.89461259851252	-112.1364710197439	200.834076990399	60.190705914823944
795	3.97	-112.78186568240791	571.0985552692049	304.5305798816412	-247.03186486315553	413.03428612352286	53.817943464798	-112.14602726378354	200.84498946200273	59.94973067729005
796	3.975	-112.81644705109237	571.0118595388518	304.5021870553645	-247.03917876002052	413.0074184527697	53.74110326107663	-112.1537248638707	200.85629745637914	59.70673150941423
797	3.98	-112.85211964977583	570.9269671095179	304.47358723031795	-247.0455105809853	412.98097515684293	53.66412056276682	-112.15936797837846	200.86780940272558	59.46176413664949
798	3.985	-112.88884698199907	570.8438762302915	304.4447846439594	-247.05078482785467	412.95487595971815	53.58702697508796	-112.1627630278924	200.87933399594118	59.21489786445179
799	3.99	-112.92659170102051	570.762585222219	304.415784884967	-247.05492963547863	412.9290393835271	53.50985710177535	-112.1637197599064	200.89068042302247	58.966216104397596
800	3.995	-112.96531561077381	570.683092463281	304.3865949285767	-247.0578771366109	412.90338303841816	53.432648500865675	-112.16205233835217	200.90165861993336	58.715816881027195
801	4.0	-113.00497966802733	570.6053963744931	304.3572231679675	-247.05956383209138	412.8778239356443	53.355441627366645	-112.15758045506409	200.91207955977995	58.463813316464616
